<?xml version="1.0" encoding="UTF-8"?>
<!DOCTYPE svg PUBLIC "-//W3C//DTD SVG 1.1//EN" "http://www.w3.org/Graphics/SVG/1.1/DTD/svg11.dtd">
<!-- Creator: CorelDRAW -->
<svg xmlns="http://www.w3.org/2000/svg" xml:space="preserve" width="60.3546mm" height="105.644mm" style="shape-rendering:geometricPrecision; text-rendering:geometricPrecision; image-rendering:optimizeQuality; fill-rule:evenodd; clip-rule:evenodd"
viewBox="0 0 6.45521 11.2991"
 xmlns:xlink="http://www.w3.org/1999/xlink">
 <defs>
  <style type="text/css">
   <![CDATA[
    .fil0 {fill:#E6E6E6}
    .fil1 {fill:#E6E6E6;fill-rule:nonzero}
   ]]>
  </style>
 </defs>
 <g id="图层_x0020_1">
  <metadata id="CorelCorpID_0Corel-Layer"/>
  <g id="_338490576">
   <polygon id="_338490792" class="fil0" points="-0,0 6.45521,0 6.45521,0.892345 4.11758,0.892345 3.94367,0.319656 2.51154,0.319656 2.33764,0.892345 -0,0.892345 "/>
   <polygon id="_338490624" class="fil0" points="-0,6.45558 6.45521,6.45558 6.45521,5.56323 4.11758,5.56323 3.94367,6.13592 2.51154,6.13592 2.33764,5.56323 -0,5.56323 "/>
  </g>
  <path class="fil1" d="M0.967053 9.96373l0.320265 0c0.0223322,-0.0567502 0.0434664,-0.115009 0.0636916,-0.175074l-0.580155 0 0 0.480847c0,0.273772 -0.0160004,0.475414 -0.0476912,0.604904 -0.0320009,0.139148 -0.0975,0.280714 -0.196508,0.424696 -0.0295837,-0.0401401 -0.062483,-0.0808899 -0.0990081,-0.122249 0.0814996,-0.12134 0.134923,-0.241172 0.160892,-0.358898 0.0271665,-0.111982 0.0407498,-0.284339 0.0407498,-0.516463l0 -0.642028 1.54576 0 0 0.129191 -0.668596 0c-0.0265569,0.0636916 -0.0522153,0.121939 -0.0769754,0.175074l0.604006 0 0 0.725036 -0.132506 0 0 -0.0353165 -0.327207 0 0 0.396032c0,0.148806 -0.0673174,0.222455 -0.201642,0.221257 -0.0413487,0 -0.115607,-0.00120859 -0.222765,-0.00362577 -0.00482366,-0.044675 -0.0123747,-0.0959919 -0.0232413,-0.15394 0.0920667,0.011765 0.164507,0.017808 0.217632,0.017808 0.0588679,0 0.0884409,-0.0341079 0.0884409,-0.102634l0 -0.374898 -0.33233 0 0 0.0353165 -0.132816 0 0 -0.725036zm0.132816 0.571096l0.801113 0 0 -0.169641 -0.801113 0 0 0.169641zm0.801113 -0.452772l-0.801113 0 0 0.168122 0.801113 0 0 -0.168122zm-0.781797 0.640221l0.12195 0.0796813c-0.114399,0.169951 -0.237557,0.320265 -0.369465,0.450964 -0.0307923,-0.0259579 -0.0691249,-0.0546325 -0.115009,-0.0866227 0.118934,-0.109575 0.239975,-0.257483 0.362523,-0.444023zm0.68973 0.00362577c0.153341,0.14518 0.284339,0.279505 0.392706,0.403262l-0.118634 0.10626c-0.11319,-0.143983 -0.239365,-0.285559 -0.378513,-0.424707l0.104441 -0.0848152zm1.33477 -0.80292l0.583481 0 0 -0.362523 0.139758 0 0 0.362523 0.25113 0 0 0.129191 -0.25113 0 0 0.955053c0,0.166315 -0.0772749,0.249322 -0.231525,0.249322 -0.0673067,0 -0.159373,-0.000598947 -0.276189,-0.00180754 -0.00573278,-0.0434664 -0.0150913,-0.0953823 -0.0280756,-0.155758 0.116517,0.00844943 0.203749,0.0123747 0.261708,0.0123747 0.0896495,0 0.134325,-0.037124 0.134325,-0.111383l0 -0.795669c-0.148517,0.321763 -0.368866,0.599471 -0.661355,0.832804 -0.0283751,-0.0341186 -0.0630819,-0.0736598 -0.104441,-0.118335 0.309099,-0.233621 0.541213,-0.522496 0.696971,-0.866601l-0.514656 0 0 -0.129191zm-0.785412 0.760352c0.13795,-0.19439 0.236958,-0.407797 0.297024,-0.640221l-0.268649 0 0 -0.125565 0.29189 0 0 -0.35709 0.136132 0 0 0.35709 0.256274 0 0 0.125565 -0.256274 0 0 0.238766 0.0724405 -0.0651997c0.0990081,0.0917565 0.191684,0.182016 0.277708,0.270457l-0.106249 0.0971898c-0.0787829,-0.0929651 -0.160282,-0.181406 -0.2439,-0.265323l0 0.971053 -0.136132 0 0 -0.96562c-0.072141,0.206466 -0.155758,0.377914 -0.251141,0.514656 -0.0214337,-0.050718 -0.0443756,-0.102634 -0.0691249,-0.155758zm1.91826 0.217632c0.126175,-0.16148 0.222765,-0.343806 0.290083,-0.546347l-0.272275 0 0 -0.120431 0.295217 0 0 -0.679163 0.130998 0 0 0.679163 0.288265 0 0 0.120431 -0.288265 0 0 0.175074 0.0793819 -0.0636916c0.0803017,0.0848259 0.152742,0.166325 0.217642,0.2439l-0.100826 0.0814996c-0.0612744,-0.0836173 -0.126774,-0.163908 -0.196198,-0.240573l0 0.737411 -0.130998 0 0 -0.712661c-0.0742587,0.198016 -0.160282,0.353764 -0.258082,0.466965 -0.0154015,-0.0483008 -0.0338084,-0.0956925 -0.0549427,-0.141576zm0.781797 -0.230006l0.565962 -0.0688254 0 -1.04711 0.136132 0 0 1.03112 0.268949 -0.0335089 0.0105671 0.127383 -0.279516 0.0353165 0 0.572903 -0.136132 0 0 -0.556903 -0.548454 0.0670072 -0.0175085 -0.127383zm0.037124 -0.403273l0.0760663 -0.0935748c0.111982,0.0742587 0.216423,0.149726 0.313014,0.226391l-0.0866227 0.106249c-0.0908581,-0.0778738 -0.191684,-0.157566 -0.302458,-0.239065zm-0.33264 -0.160881c0.054333,-0.133116 0.099607,-0.256274 0.136442,-0.369465l0.125565 0.0389422c-0.0437659,0.116506 -0.0944839,0.242082 -0.152133,0.376706l-0.109875 -0.0461831zm0.371582 -0.288265l0.0811894 -0.0935748c0.101425,0.0730501 0.201032,0.152133 0.299142,0.236948l-0.0884516 0.104441c-0.0766652,-0.0745582 -0.174165,-0.156956 -0.29188,-0.247814zm-0.841863 -0.0422578l0.105949 -0.042568c0.0437659,0.101425 0.0914571,0.21945 0.143384,0.353774l-0.12195 0.0546325c-0.0531245,-0.159074 -0.0956925,-0.281024 -0.127383,-0.365839z"/>
  <g id="_338489304">
   <path id="_338490312" class="fil0" d="M1.67643 3.90057l0.414279 0c0.0918635,0 0.167021,0.0751571 0.167021,0.167021l0 0.414279c0,0.0918635 -0.0751571,0.167021 -0.167021,0.167021l-0.414279 0c-0.0918635,0 -0.167021,-0.0751571 -0.167021,-0.167021l0 -0.414279c0,-0.0918635 0.0751571,-0.167021 0.167021,-0.167021z"/>
   <path id="_338490192" class="fil0" d="M2.57246 3.90057l0.414279 0c0.0918635,0 0.167021,0.0751571 0.167021,0.167021l0 0.414279c0,0.0918635 -0.0751571,0.167021 -0.167021,0.167021l-0.414279 0c-0.0918635,0 -0.167021,-0.0751571 -0.167021,-0.167021l0 -0.414279c0,-0.0918635 0.0751571,-0.167021 0.167021,-0.167021z"/>
   <path id="_338490072" class="fil0" d="M3.46848 3.90057l0.414279 0c0.0918635,0 0.167021,0.0751571 0.167021,0.167021l0 0.414279c0,0.0918635 -0.0751571,0.167021 -0.167021,0.167021l-0.414279 0c-0.0918635,0 -0.167021,-0.0751571 -0.167021,-0.167021l0 -0.414279c0,-0.0918635 0.0751571,-0.167021 0.167021,-0.167021z"/>
   <path id="_338489952" class="fil0" d="M4.3645 3.90057l0.414279 0c0.0918635,0 0.167021,0.0751571 0.167021,0.167021l0 0.414279c0,0.0918635 -0.0751571,0.167021 -0.167021,0.167021l-0.414279 0c-0.0918635,0 -0.167021,-0.0751571 -0.167021,-0.167021l0 -0.414279c0,-0.0918635 0.0751571,-0.167021 0.167021,-0.167021z"/>
   <path id="_338489832" class="fil0" d="M2.11952 3.03904l0.414279 0c0.0918635,0 0.167021,0.0751571 0.167021,0.167021l0 0.414279c0,0.0918635 -0.0751571,0.167021 -0.167021,0.167021l-0.414279 0c-0.0918635,0 -0.167021,-0.0751571 -0.167021,-0.167021l0 -0.414279c0,-0.0918635 0.0751571,-0.167021 0.167021,-0.167021z"/>
   <path id="_338489712" class="fil0" d="M3.03524 3.03904l0.414279 0c0.0918635,0 0.167021,0.0751571 0.167021,0.167021l0 0.414279c0,0.0918635 -0.0751571,0.167021 -0.167021,0.167021l-0.414279 0c-0.0918635,0 -0.167021,-0.0751571 -0.167021,-0.167021l0 -0.414279c0,-0.0918635 0.0751571,-0.167021 0.167021,-0.167021z"/>
   <path id="_338489592" class="fil0" d="M3.95096 3.03904l0.414279 0c0.0918635,0 0.167021,0.0751571 0.167021,0.167021l0 0.414279c0,0.0918635 -0.0751571,0.167021 -0.167021,0.167021l-0.414279 0c-0.0918635,0 -0.167021,-0.0751571 -0.167021,-0.167021l0 -0.414279c0,-0.0918635 0.0751571,-0.167021 0.167021,-0.167021z"/>
   <path id="_338489472" class="fil0" d="M2.56262 2.20208l0.414279 0c0.0918635,0 0.167021,0.0751571 0.167021,0.167021l0 0.414279c0,0.0918635 -0.0751571,0.167021 -0.167021,0.167021l-0.414279 0c-0.0918635,0 -0.167021,-0.0751571 -0.167021,-0.167021l0 -0.414279c0,-0.0918635 0.0751571,-0.167021 0.167021,-0.167021z"/>
   <path id="_338489280" class="fil0" d="M3.90201 1.84042l0.33017 0.250231c0.0732106,0.0554882 0.0877136,0.160785 0.0322255,0.233996l-0.250231 0.33017c-0.0554882,0.0732106 -0.160785,0.0877136 -0.233996,0.0322255l-0.33017 -0.250231c-0.0732106,-0.0554882 -0.0877136,-0.160785 -0.0322255,-0.233996l0.250242 -0.33017c0.0554775,-0.0732106 0.160774,-0.0877136 0.233985,-0.0322255z"/>
  </g>
 </g>
</svg>
