<?xml version="1.0" encoding="UTF-8"?>
<!DOCTYPE svg PUBLIC "-//W3C//DTD SVG 1.1//EN" "http://www.w3.org/Graphics/SVG/1.1/DTD/svg11.dtd">
<!-- Creator: CorelDRAW -->
<svg xmlns="http://www.w3.org/2000/svg" xml:space="preserve" width="70.2902mm" height="105.658mm" style="shape-rendering:geometricPrecision; text-rendering:geometricPrecision; image-rendering:optimizeQuality; fill-rule:evenodd; clip-rule:evenodd"
viewBox="0 0 20.4334 30.7147"
 xmlns:xlink="http://www.w3.org/1999/xlink">
 <defs>
  <style type="text/css">
   <![CDATA[
    .fil0 {fill:#E6E6E6}
    .fil1 {fill:#E6E6E6;fill-rule:nonzero}
   ]]>
  </style>
 </defs>
 <g id="图层_x0020_1">
  <metadata id="CorelCorpID_0Corel-Layer"/>
  <g id="_338491800">
   <path id="_338492184" class="fil0" d="M11.4475 5.09873c0.443753,0.151542 0.851228,0.381486 1.20623,0.672854l2.02013 -0.577911 0.807274 1.39824 -1.47981 1.43085c0.0474713,0.24256 0.0725587,0.493231 0.0725587,0.749773 0,0.21506 -0.0175583,0.42605 -0.0512504,0.631575l1.50992 1.45992 -0.807303 1.39824 -1.9799 -0.566371c-0.346224,0.302502 -0.746692,0.544655 -1.18486,0.709744l-0.509277 2.03725 -1.61458 0 -0.499103 -1.99638c-0.443841,-0.151629 -0.851489,-0.381427 -1.20649,-0.67297l-2.01987 0.577853 -0.807303 -1.39827 1.47992 -1.43091c-0.0474713,-0.24256 -0.0726459,-0.493172 -0.0726459,-0.749686 0,-0.215089 0.0175583,-0.42605 0.0512504,-0.631604l-1.50992 -1.45992 0.807274 -1.39824 1.97993 0.5664c0.346224,-0.302502 0.746692,-0.544655 1.18486,-0.709744l0.509277 -2.03725 1.61458 0 0.499103 1.99656zm-1.25498 1.40315c1.25405,0 2.27063,1.01661 2.27063,2.27066 0,1.25405 -1.01658,2.27063 -2.27063,2.27063 -1.25405,0 -2.27063,-1.01658 -2.27063,-2.27063 0,-1.25405 1.01658,-2.27066 2.27063,-2.27066z"/>
   <polygon id="_338492016" class="fil0" points="1.41995,0 18.965,0 18.965,2.42537 12.6114,2.42537 12.1387,0.868815 8.24626,0.868815 7.77358,2.42537 1.41995,2.42537 "/>
   <polygon id="_338491776" class="fil0" points="1.41995,17.5461 18.965,17.5461 18.965,15.1207 12.6114,15.1207 12.1387,16.6773 8.24626,16.6773 7.77358,15.1207 1.41995,15.1207 "/>
  </g>
  <path class="fil1" d="M1.52844 29.2872l1.39144 0c0.0213374,-0.116513 0.0344479,-0.260903 0.0410178,-0.432358l-0.740006 0 0 0.134536 -0.346224 0 0 -1.7401 2.572 0 0 1.7401 -0.346195 0 0 -0.134536 -0.808117 0c-0.00904077,0.176397 -0.0238083,0.319973 -0.0426748,0.432358l1.50876 0 0 0.307648 -1.32664 0c0.347881,0.389712 0.808117,0.626807 1.37995,0.711314 -0.0902333,0.118954 -0.16817,0.238752 -0.235467,0.360991 -0.620237,-0.18131 -1.10344,-0.507853 -1.44966,-0.981229 -0.228897,0.460265 -0.755616,0.796634 -1.57931,1.00992 -0.0541574,-0.112385 -0.116483,-0.223141 -0.187065,-0.331427 0.754802,-0.159158 1.23719,-0.415149 1.44641,-0.76957l-1.27821 0 0 -0.307648zm-1.52844 -0.326514c0.276485,-0.465178 0.497184,-1.00338 0.660441,-1.61542l-0.602999 0 0 -0.317502 0.667825 0 0 -1.06736 0.337183 0 0 1.06736 0.624336 0 0 0.317502 -0.624336 0 0 0.634191 0.187036 -0.153431c0.182967,0.195263 0.352793,0.392154 0.509481,0.591516l-0.264159 0.220699c-0.147676,-0.213316 -0.292066,-0.401166 -0.432358,-0.564452l0 2.60319 -0.337183 0 0 -2.61796c-0.171484,0.586603 -0.358549,1.028 -0.56201,1.32417 -0.0451166,-0.137821 -0.099274,-0.278956 -0.163257,-0.422503zm3.57622 -2.99537l0.336369 0 0 0.461893 0.826983 0 0 0.307677 -0.826983 0 0 0.388869 -0.336369 0 0 -0.388869 -0.855704 0 0 0.388869 -0.336369 0 0 -0.388869 -0.759715 0 0 -0.307677 0.759715 0 0 -0.466806 0.336369 0 0 0.466806 0.855704 0 0 -0.461893zm0.524248 1.58179l-1.87958 0 0 0.360148 1.87958 0 0 -0.360148zm-1.87958 1.00992l1.87958 0 0 -0.360991 -1.87958 0 0 0.360991zm3.01668 0.701459l0.662883 0 0 -3.09133 3.44741 0 0 3.09133 0.653871 0 0 0.346224 -4.76417 0 0 -0.346224zm1.0337 0l2.70575 0 0 -0.452038 -2.70575 0 0 0.452038zm2.70575 -2.74511l-2.70575 0 0 0.442213 2.70575 0 0 -0.442213zm-2.70575 1.20684l2.70575 0 0 -0.442213 -2.70575 0 0 0.442213zm0 0.764628l2.70575 0 0 -0.442213 -2.70575 0 0 0.442213zm1.75405 1.56699l0.201833 -0.317502c0.561167,0.169827 1.12972,0.361805 1.70728,0.576749l-0.18785 0.379858c-0.435643,-0.191978 -1.00914,-0.405294 -1.72126,-0.639104zm-1.07637 -0.346224l0.230525 0.317502c-0.563609,0.259246 -1.13297,0.4898 -1.70647,0.691633 -0.0484015,-0.105844 -0.107472,-0.225641 -0.178025,-0.360177 0.493899,-0.147676 1.04521,-0.363433 1.65397,-0.648959zm4.89626 -3.71157l0.374945 0 0 0.735907 1.04355 0 0 0.336398 -1.04355 0 0 0.644017 1.2544 0 0 0.336369 -1.2544 0 0 0.539016 1.0526 0 0 1.14367c0,0.346195 -0.156716,0.520963 -0.470934,0.524248 -0.099274,0.00328491 -0.232182,0.00328491 -0.398724,0 -0.0163955,-0.102559 -0.0402038,-0.218228 -0.0721808,-0.346224 0.156687,0.00985473 0.285496,0.0147676 0.38477,0.0147676 0.134536,0 0.201804,-0.0804076 0.201804,-0.24038l0 -0.76957 -0.697331 0 0 1.78359 -0.374945 0 0 -1.78359 -0.662883 0 0 1.42263 -0.356078 0 0 -1.74914 1.01896 0 0 -0.539016 -1.37995 0 0 -0.336369 1.37995 0 0 -0.644017 -0.711314 0c-0.0820355,0.184594 -0.17474,0.359334 -0.278927,0.524219 -0.105844,-0.0606981 -0.214944,-0.122239 -0.326543,-0.182937 0.252705,-0.381486 0.429102,-0.794977 0.528376,-1.24047l0.356049 0.0918903c-0.0418317,0.163257 -0.0894193,0.319973 -0.141949,0.470905l0.574307 0 0 -0.735907zm2.7402 -0.00409887l0.38477 0 0 3.96099c0,0.432358 -0.191164,0.648929 -0.57265,0.648929 -0.12471,0 -0.339654,-0.00162792 -0.644017,-0.00491283 -0.0188664,-0.12471 -0.0443027,-0.264159 -0.0763087,-0.418404 0.269101,0.0254362 0.470934,0.0385468 0.60547,0.0385468 0.201833,0 0.302735,-0.114042 0.302735,-0.341282l0 -3.88387zm-0.552969 3.42197l-0.370003 0 0 -2.9609 0.370003 0 0 2.9609zm2.94941 -1.50876c0.426631,-0.583319 0.740849,-1.2339 0.942653,-1.95176l0.393811 0.0721808c-0.0754657,0.246136 -0.159972,0.484858 -0.254333,0.716227l2.36938 0 0 0.336369 -1.74914 0 0 0.840937 1.55716 0 0 0.336369 -1.55716 0 0 0.875385 1.61952 0 0 0.336369 -1.61952 0 0 1.21175 -0.374916 0 0 -3.60081 -0.392183 0c-0.18131,0.390526 -0.392154,0.758058 -0.63172,1.101 -0.0902333,-0.0869484 -0.191135,-0.178025 -0.303549,-0.274014zm-1.33646 0.442213c0.452067,-0.670296 0.809745,-1.46362 1.0723,-2.38005l0.394596 0.115699c-0.123867,0.378201 -0.255147,0.732622 -0.394596,1.06489l0 3.53107 -0.374945 0 0 -2.74758c-0.161629,0.302735 -0.333084,0.57922 -0.514394,0.829454 -0.0475876,-0.122239 -0.109129,-0.260089 -0.182967,-0.413492z"/>
 </g>
</svg>
