<?xml version="1.0" encoding="UTF-8"?>
<!DOCTYPE svg PUBLIC "-//W3C//DTD SVG 1.1//EN" "http://www.w3.org/Graphics/SVG/1.1/DTD/svg11.dtd">
<!-- Creator: CorelDRAW -->
<svg xmlns="http://www.w3.org/2000/svg" xml:space="preserve" width="70.1434mm" height="105.658mm" style="shape-rendering:geometricPrecision; text-rendering:geometricPrecision; image-rendering:optimizeQuality; fill-rule:evenodd; clip-rule:evenodd"
viewBox="0 0 54.3223 81.8263"
 xmlns:xlink="http://www.w3.org/1999/xlink">
 <defs>
  <style type="text/css">
   <![CDATA[
    .fil0 {fill:#E6E6E6}
    .fil1 {fill:#E6E6E6;fill-rule:nonzero}
   ]]>
  </style>
 </defs>
 <g id="图层_x0020_1">
  <metadata id="CorelCorpID_0Corel-Layer"/>
  <g id="_338491248">
   <path id="_338491632" class="fil0" d="M18.7304 18.7773l4.64559 0 0 -8.44618 7.48084 0 0 8.44618 4.64559 0 0 9.04955 -4.64559 0 0 7.722 -3.68024 5.67127 -3.80059 -5.79161 0 -7.60165 -4.64559 0 0 -9.04955zm13.5159 2.17162l-3.49918 0 0 4.22336 3.49918 0 0 -4.22336zm-10.258 0l3.4991 0 0 4.22336 -3.4991 0 0 -4.22336z"/>
   <polygon id="_338491464" class="fil0" points="3.74568,0 50.487,0 50.487,6.46135 33.5606,6.46135 32.3013,2.31459 21.9314,2.31459 20.6722,6.46135 3.74568,6.46135 "/>
   <polygon id="_338491296" class="fil0" points="3.74568,46.744 50.487,46.744 50.487,40.2826 33.5606,40.2826 32.3013,44.4294 21.9314,44.4294 20.6722,40.2826 3.74568,40.2826 "/>
  </g>
  <path class="fil1" d="M3.1626 80.045l4.30359 0 0 -3.63695 -3.3288 0 0 -0.972626 3.3288 0 0 -3.09925 -3.68721 0 0 -0.972626 4.08497 0c-0.40217,-0.635975 -0.810845,-1.21743 -1.23052,-1.74196l0.84585 -0.537698c0.572625,0.664474 1.02506,1.2546 1.35729,1.76605l-0.799925 0.513612 4.29701 0 0 0.972626 -3.79215 0 0 3.09925 3.33097 0 0 0.972626 -3.33097 0 0 3.63695 4.15056 0 0 0.974795 -9.52948 0 0 -0.974795zm-1.37038 -3.68721c0.351908,0.152953 0.688482,0.295064 1.01197,0.421841 -0.467765,1.50374 -0.959538,3.14293 -1.47098,4.91773l-1.10157 -0.384667c0.537698,-1.46006 1.05789,-3.11025 1.56059,-4.9549zm-0.664397 -7.00502c0.828347,0.622887 1.56709,1.24577 2.21406,1.86874 -0.288558,0.290649 -0.546449,0.550786 -0.767166,0.782422 -0.461182,-0.487359 -1.16058,-1.1365 -2.10045,-1.94742l0.653555 -0.703739zm-0.487436 3.31563c0.614135,0.428346 1.37038,1.00755 2.26649,1.74196 -0.314735,0.358413 -0.568211,0.636052 -0.754,0.832761 -0.898357,-0.819673 -1.61518,-1.43381 -2.15288,-1.84473l0.640389 -0.729992zm20.6129 -2.67525l4.53523 0 0 5.82693c0,0.937699 -0.437097,1.40755 -1.30695,1.40755 -0.316981,0.00875124 -0.841513,0.0131656 -1.57592,0.0131656 -0.00875124,-0.0502615 -0.0590128,-0.38033 -0.152953,-0.985792 0.511444,0.0262537 1.03598,0.0393418 1.57584,0.0393418 0.358413,0 0.537698,-0.205383 0.537698,-0.616304l0 -0.690651 -2.99656 0c-0.25789,0.88736 -0.804339,1.70262 -1.63927,2.4457 -0.214134,-0.238219 -0.469856,-0.469934 -0.769334,-0.690651 0.725656,-0.563874 1.20868,-1.18242 1.4469,-1.85782 0.231714,-0.622887 0.345325,-1.67853 0.345325,-3.1626l0 -1.72887zm-1.88183 5.54503l0 -0.345403 -1.59993 0c-0.249139,0.972626 -0.99222,1.87749 -2.22932,2.71459 -0.15303,-0.246971 -0.34974,-0.509198 -0.587959,-0.782422 0.955124,-0.537698 1.57801,-1.18242 1.86874,-1.93216l-1.88183 0 0 -2.65116 0.819596 0 0 1.83156 1.26769 0c0.0852665,-0.461182 0.122362,-1.24802 0.113611,-2.3561l-2.77794 0 0 -0.819673 1.84473 0c-0.358491,-0.581376 -0.688482,-1.05565 -0.985792,-1.42281l0.703816 -0.474348c0.273224,0.316981 0.631638,0.778163 1.07532,1.38355l-0.729992 0.513612 1.71571 0c0.426255,-0.719073 0.778163,-1.37038 1.05131,-1.96051l0.896111 0.397755c-0.255722,0.382499 -0.614135,0.904862 -1.07532,1.56275l1.85565 0 0 0.819673 -2.7015 0c0.00875124,1.09282 -0.0218394,1.87741 -0.0896034,2.3561l1.4469 0 0 -1.87091 0.819596 0 0 3.0359 -0.819596 0zm-5.36575 4.87831l5.85318 0 0 -1.39439 -4.25333 0 0 -0.84585 4.25333 0 0 -0.716904 0.946373 0 0 0.716904 4.15056 0 0 0.84585 -4.15056 0 0 1.39439 5.77667 0 0 0.84585 -12.5762 0 0 -0.84585zm8.03007 -6.22252l2.83044 0 0 -1.29394 -2.71683 0c-0.0240078,0.485268 -0.0633497,0.918028 -0.113611,1.29394zm2.83044 -3.38123l-2.69058 0 0 1.29394 2.69058 0 0 -1.29394zm3.00307 9.23224l5.94279 0 0 -3.26537 -4.53306 0 0 -0.985714 4.53306 0 0 -2.95722 -3.38123 0c-0.568211,1.02289 -1.22177,1.94959 -1.95834,2.77794 -0.179207,-0.281898 -0.410843,-0.581376 -0.692819,-0.896111 1.20426,-1.34854 2.15722,-2.99649 2.85662,-4.94391l1.04914 0.281898c-0.225131,0.622964 -0.474271,1.22184 -0.747495,1.7923l2.87412 0 0 -2.71459 1.10157 0 0 2.71459 4.89148 0 0 0.987883 -4.89148 0 0 2.95722 4.53306 0 0 0.985714 -4.53306 0 0 3.26537 5.58437 0 0 0.961629 -12.6287 0 0 -0.961629zm15.1575 -5.72424l6.05864 0c0.574794,-0.848018 1.09282,-1.69387 1.54959,-2.53538l0.985714 0.627301c-0.452431,0.636052 -0.926702,1.27203 -1.42064,1.90808l3.7899 0 0 0.896111 -9.92506 0 0 0.898279c0,1.51032 -0.11578,2.63807 -0.345325,3.37906 -0.240388,0.828347 -0.692819,1.60643 -1.35729,2.33209 -0.222885,-0.273224 -0.452431,-0.563951 -0.692819,-0.872103 0.504861,-0.537698 0.858938,-1.16934 1.0644,-1.89499 0.194541,-0.708153 0.292895,-1.68945 0.292895,-2.94406l0 -1.79439zm-1.04914 -3.66321l5.84668 0c-0.188035,-0.349662 -0.395664,-0.708153 -0.622964,-1.07532l0.948618 -0.474271c0.277561,0.452431 0.561705,0.970458 0.852355,1.54959l5.3199 0 0 0.909277 -12.3446 0 0 -0.909277zm2.67525 1.63927l0.84585 -0.561705c0.528946,0.664474 0.99888,1.29611 1.40972,1.89499l-0.909199 0.627224c-0.334406,-0.563874 -0.7825,-1.21735 -1.34637,-1.96051z"/>
 </g>
</svg>
