<?xml version="1.0" encoding="UTF-8"?>
<!DOCTYPE svg PUBLIC "-//W3C//DTD SVG 1.1//EN" "http://www.w3.org/Graphics/SVG/1.1/DTD/svg11.dtd">
<!-- Creator: CorelDRAW -->
<svg xmlns="http://www.w3.org/2000/svg" xml:space="preserve" width="70.3748mm" height="105.79mm" style="shape-rendering:geometricPrecision; text-rendering:geometricPrecision; image-rendering:optimizeQuality; fill-rule:evenodd; clip-rule:evenodd"
viewBox="0 0 11.7149 17.6103"
 xmlns:xlink="http://www.w3.org/1999/xlink">
 <defs>
  <style type="text/css">
   <![CDATA[
    .fil0 {fill:#E6E6E6}
    .fil1 {fill:#E6E6E6;fill-rule:nonzero}
   ]]>
  </style>
 </defs>
 <g id="图层_x0020_1">
  <metadata id="CorelCorpID_0Corel-Layer"/>
  <g id="_338488584">
   <g>
    <polygon id="_338489136" class="fil0" points="0.81191,0 10.8588,0 10.8588,1.38884 7.2205,1.38884 6.94981,0.49751 4.72086,0.49751 4.45019,1.38884 0.81191,1.38884 "/>
    <polygon id="_338488968" class="fil0" points="0.81191,10.0474 10.8588,10.0474 10.8588,8.65858 7.2205,8.65858 6.94981,9.54991 4.72086,9.54991 4.45019,8.65858 0.81191,8.65858 "/>
   </g>
   <path id="_338488776" class="fil1" d="M0.599935 15.9364l0.451466 0 0 -0.239608 0.203901 0 0 0.239608 0.569855 0 0 -0.239608 0.203419 0 0 0.239608 0.514906 0 0 0.181812 -0.514906 0 0 0.302548 0.644098 0 0 0.181812 -1.1604 0c0.0836314,0.135768 0.185574,0.252742 0.305844,0.350939 0.143275,-0.0685997 0.328849,-0.165382 0.557171,-0.290346l0.115576 0.201072c-0.193564,0.0808181 -0.359861,0.150333 -0.499391,0.209062 0.205766,0.12027 0.451932,0.198258 0.738982,0.233965 -0.0568474,0.073294 -0.108052,0.143292 -0.154095,0.209062 -0.6018,-0.124498 -1.02791,-0.429393 -1.27877,-0.913753l-0.293159 0 0 0.691057c0.0239541,-0.00750751 0.206715,-0.0652871 0.547782,-0.173355 -0.00329598,0.0695319 -0.00329598,0.142826 0,0.219865 -0.16678,0.0479249 -0.333094,0.10101 -0.497993,0.159739 -0.0422818,0.0164466 -0.108518,0.0469761 -0.198242,0.0911389l-0.121219 -0.168178c0.0441628,-0.0291312 0.0662526,-0.0925538 0.0662526,-0.189802l0 -0.630465 -0.326052 0c-0.0159639,0.376308 -0.121668,0.703742 -0.318046,0.982802 -0.0460439,-0.0624738 -0.0981803,-0.127778 -0.156909,-0.195428 0.190734,-0.247581 0.286101,-0.650673 0.286101,-1.20831l0 -1.18389 2.24609 0 0 0.723951 -0.209045 0 0 -0.093486 -1.82799 0 0 0.36597c0,0.155977 -0.00281324,0.29832 -0.00938855,0.42658l0.565627 0 0 -0.302548 -0.451466 0 0 -0.181812zm1.72322 -0.756844l-1.82799 0 0 0.266841 1.82799 0 0 -0.266841zm-1.06785 1.2412l0.569855 0 0 -0.302548 -0.569855 0 0 0.302548zm3.15609 -0.0850463c0,0.122617 -0.0098713,0.233965 -0.0291312,0.333094l0.18604 0 0 0.484359c0,0.109933 0.0615416,0.165365 0.184159,0.165365l0.487655 0c0.135768,0 0.210943,-0.0526192 0.225508,-0.156909 0.01643,-0.0939521 0.0295972,-0.205766 0.0385197,-0.335907 0.069998,0.0272501 0.142343,0.0521531 0.217518,0.0742262 -0.0164466,0.119338 -0.0338254,0.225508 -0.0521531,0.319461 -0.0333593,0.194496 -0.166314,0.291744 -0.39933,0.291744l-0.564229 0c-0.231135,0 -0.346694,-0.11228 -0.346694,-0.335907l0 -0.410133c-0.0451117,0.155977 -0.117457,0.27906 -0.217518,0.3688 -0.174304,0.174288 -0.514906,0.324621 -1.02134,0.451466 -0.0385364,-0.0695152 -0.0798693,-0.137649 -0.124032,-0.203885 0.484359,-0.111814 0.806633,-0.239125 0.966372,-0.382417 0.163018,-0.133887 0.241938,-0.355167 0.236778,-0.663358l0.211875 0zm-1.04905 -0.288914l1.91067 0 0 0.921743 -0.211892 0 0 -0.729128 -1.48644 0 0 0.754014 -0.212341 0 0 -0.946629zm1.18953 -1.18389l0.231135 0c-0.0413496,0.10101 -0.0845636,0.197309 -0.129192,0.288931l1.0157 0 0 0.192615 -1.11482 0c-0.0963159,0.172873 -0.19919,0.327917 -0.308657,0.465566 -0.0587284,-0.051687 -0.119321,-0.0963159 -0.181346,-0.134836 0.198258,-0.222212 0.360344,-0.492816 0.487189,-0.812276zm-0.770943 0.00281324l0.209062 0 0 1.0514 -0.209062 0 0 -1.0514zm-0.627651 0.0798693l0.209062 0 0 0.960729 -0.209062 0 0 -0.960729zm1.5306 0.512076c0.28422,0.124498 0.551544,0.253225 0.801007,0.38523l-0.109933 0.178998c-0.211409,-0.121202 -0.477318,-0.256038 -0.79866,-0.404956l0.107585 -0.159272zm1.88718 0.478733l0.451466 0 0 -0.239608 0.203901 0 0 0.239608 0.569855 0 0 -0.239608 0.203419 0 0 0.239608 0.514906 0 0 0.181812 -0.514906 0 0 0.302548 0.644098 0 0 0.181812 -1.1604 0c0.0836314,0.135768 0.185574,0.252742 0.305844,0.350939 0.143275,-0.0685997 0.328849,-0.165382 0.557171,-0.290346l0.115576 0.201072c-0.193564,0.0808181 -0.359861,0.150333 -0.499391,0.209062 0.205766,0.12027 0.451932,0.198258 0.738982,0.233965 -0.0568474,0.073294 -0.108052,0.143292 -0.154095,0.209062 -0.6018,-0.124498 -1.02791,-0.429393 -1.27877,-0.913753l-0.293159 0 0 0.691057c0.0239541,-0.00750751 0.206715,-0.0652871 0.547782,-0.173355 -0.00329598,0.0695319 -0.00329598,0.142826 0,0.219865 -0.16678,0.0479249 -0.333094,0.10101 -0.497993,0.159739 -0.0422818,0.0164466 -0.108518,0.0469761 -0.198242,0.0911389l-0.121219 -0.168178c0.0441628,-0.0291312 0.0662526,-0.0925538 0.0662526,-0.189802l0 -0.630465 -0.326052 0c-0.0159639,0.376308 -0.121668,0.703742 -0.318046,0.982802 -0.0460439,-0.0624738 -0.0981803,-0.127778 -0.156909,-0.195428 0.190734,-0.247581 0.286101,-0.650673 0.286101,-1.20831l0 -1.18389 2.24609 0 0 0.723951 -0.209045 0 0 -0.093486 -1.82799 0 0 0.36597c0,0.155977 -0.00281324,0.29832 -0.00938855,0.42658l0.565627 0 0 -0.302548 -0.451466 0 0 -0.181812zm1.72322 -0.756844l-1.82799 0 0 0.266841 1.82799 0 0 -0.266841zm-1.06785 1.2412l0.569855 0 0 -0.302548 -0.569855 0 0 0.302548zm3.51125 0.363623c0.265909,0.236778 0.495163,0.458508 0.688261,0.666171l-0.178998 0.159722c-0.0587284,-0.068117 -0.126845,-0.143292 -0.203885,-0.225974 -0.456643,0.0277162 -0.92409,0.0587284 -1.40094,0.0935027 -0.0770394,0.00750751 -0.155028,0.0277162 -0.233965,0.0605928l-0.124015 -0.228322c0.0897239,-0.0328766 0.166297,-0.0770394 0.228322,-0.132006 0.159722,-0.155977 0.313817,-0.33872 0.462752,-0.547782l-0.916583 0 0 -0.203901 2.52657 0 0 0.203901 -1.33188 0c-0.187455,0.236778 -0.370199,0.446772 -0.547782,0.630465 0.405439,-0.0202087 0.79255,-0.0394685 1.16133,-0.0582623 -0.0845636,-0.0859619 -0.177117,-0.179465 -0.278111,-0.280458l0.148918 -0.137649zm-0.41576 -1.66262c-0.366919,0.433155 -0.778934,0.781747 -1.23604,1.04578 -0.0441628,-0.0657698 -0.0944349,-0.132955 -0.151282,-0.200605 0.526641,-0.270137 0.953221,-0.62577 1.27974,-1.06831l0.294558 0 -0.0521531 0.0690491c0.317579,0.423767 0.736652,0.734771 1.25812,0.933029 -0.0549663,0.0732773 -0.106637,0.151266 -0.154095,0.233948 -0.532268,-0.258851 -0.945231,-0.596173 -1.23884,-1.01288zm-0.7653 0.737584l1.51931 0 0 0.203901 -1.51931 0 0 -0.203901z"/>
   <path id="_338488656" class="fil1" d="M0.567974 6.38991l0 -2.73242 2.02561 0 0 0.462503 -1.47404 0 0 0.605662 1.37161 0 0 0.459956 -1.37161 0 0 0.743693 1.52621 0 0 0.460605 -2.07778 0zm2.48011 0l0.933928 -1.4257 -0.846135 -1.30672 0.644464 0 0.548381 0.877946 0.536313 -0.877946 0.639354 0 -0.84993 1.32708 0.933911 1.40534 -0.665455 0 -0.605645 -0.944732 -0.607559 0.944732 -0.661627 0zm3.03613 0l0 -2.73242 0.884938 0c0.335275,0 0.554108,0.0139996 0.6559,0.0413496 0.156509,0.040717 0.288199,0.129792 0.393803,0.267208 0.105605,0.137416 0.158407,0.314899 0.158407,0.531852 0,0.167945 -0.0305294,0.309173 -0.091605,0.423051 -0.0610755,0.114527 -0.138048,0.204218 -0.232217,0.269754 -0.0935193,0.0648876 -0.188936,0.108151 -0.285635,0.129143 -0.131689,0.0260849 -0.322557,0.0394353 -0.572569,0.0394353l-0.359445 0 0 1.03063 -0.551578 0zm0.551578 -2.26992l0 0.774872 0.301549 0c0.217568,0 0.363257,-0.013983 0.436418,-0.0426147 0.0731608,-0.0286318 0.130424,-0.0731608 0.172406,-0.134236 0.0413496,-0.0610755 0.0623573,-0.131689 0.0623573,-0.212491 0,-0.0992457 -0.0292643,-0.181312 -0.087793,-0.2462 -0.0578961,-0.064255 -0.132339,-0.104972 -0.221397,-0.120869 -0.0661693,-0.0127345 -0.198491,-0.0184608 -0.396983,-0.0184608l-0.266558 0zm2.09458 0.920561c0,-0.278644 0.0413496,-0.512126 0.124681,-0.701079 0.0623573,-0.138681 0.146971,-0.264011 0.25449,-0.37471 0.107502,-0.110049 0.225209,-0.192116 0.35307,-0.245567 0.170509,-0.0725282 0.366453,-0.108151 0.589115,-0.108151 0.402709,0 0.724617,0.124698 0.966372,0.37471 0.241739,0.249396 0.362625,0.596756 0.362625,1.04145 0,0.441512 -0.120253,0.786325 -0.360094,1.0357 -0.239841,0.248747 -0.560467,0.373445 -0.961261,0.373445 -0.406538,0 -0.72971,-0.124065 -0.969551,-0.37153 -0.239841,-0.248114 -0.359445,-0.589748 -0.359445,-1.02427zm0.568107 -0.0184442c0,0.30919 0.0718957,0.543937 0.214405,0.703625 0.143142,0.159672 0.324454,0.239208 0.544569,0.239208 0.219482,0 0.400162,-0.0788872 0.54139,-0.237943 0.140595,-0.158407 0.211209,-0.395701 0.211209,-0.712531 0,-0.313002 -0.0686996,-0.546484 -0.205483,-0.701062 -0.137416,-0.153962 -0.319993,-0.230935 -0.547116,-0.230935 -0.227756,0 -0.410982,0.0782379 -0.550296,0.234115 -0.138698,0.15586 -0.208679,0.390607 -0.208679,0.705523z"/>
  </g>
 </g>
</svg>
